<?xml version="1.0" encoding="UTF-8" standalone="no"?>
<!-- Created with Inkscape (http://www.inkscape.org/) -->

<svg
   width="4096.0005"
   height="4096"
   viewBox="0 0 1083.7336 1083.7335"
   version="1.1"
   id="svg5"
   xml:space="preserve"
   sodipodi:docname="app-icon.svg"
   inkscape:version="1.2.2 (b0a8486541, 2022-12-01)"
   inkscape:export-filename="app-icon.png"
   inkscape:export-xdpi="23.999994"
   inkscape:export-ydpi="23.999994"
   xmlns:inkscape="http://www.inkscape.org/namespaces/inkscape"
   xmlns:sodipodi="http://sodipodi.sourceforge.net/DTD/sodipodi-0.dtd"
   xmlns:xlink="http://www.w3.org/1999/xlink"
   xmlns="http://www.w3.org/2000/svg"
   xmlns:svg="http://www.w3.org/2000/svg"><sodipodi:namedview
     id="namedview7"
     pagecolor="#ffffff"
     bordercolor="#000000"
     borderopacity="0.25"
     inkscape:showpageshadow="2"
     inkscape:pageopacity="0.0"
     inkscape:pagecheckerboard="false"
     inkscape:deskcolor="#d1d1d1"
     inkscape:document-units="px"
     showgrid="true"
     inkscape:zoom="0.25"
     inkscape:cx="1984"
     inkscape:cy="1702"
     inkscape:window-width="3840"
     inkscape:window-height="2091"
     inkscape:window-x="0"
     inkscape:window-y="32"
     inkscape:window-maximized="1"
     inkscape:current-layer="layer1"><inkscape:grid
       type="xygrid"
       id="grid7402"
       originx="-15.465133"
       originy="-9.36178" /></sodipodi:namedview><defs
     id="defs2"><linearGradient
       inkscape:collect="always"
       id="linearGradient6288"><stop
         style="stop-color:#00ffff;stop-opacity:1"
         offset="0"
         id="stop6284" /><stop
         style="stop-color:#ff00ff;stop-opacity:1"
         offset="1"
         id="stop6286" /></linearGradient><linearGradient
       id="linearGradient6169"
       inkscape:swatch="solid"><stop
         style="stop-color:#008080;stop-opacity:1;"
         offset="0"
         id="stop6167" /></linearGradient><linearGradient
       inkscape:collect="always"
       xlink:href="#linearGradient6288"
       id="linearGradient7259"
       gradientUnits="userSpaceOnUse"
       gradientTransform="matrix(4.0000013,0,0,4.0000013,-184.99057,-401.52947)"
       x1="92.056419"
       y1="153.14407"
       x2="324.88971"
       y2="401.85236" /></defs><g
     inkscape:label="Layer 1"
     inkscape:groupmode="layer"
     id="layer1"
     transform="translate(-82.28367,-146.32546)"
     style="display:inline"><path
       fill="#01aef2"
       d="m 686.31962,146.38111 c -260.91713,3.94272 -469.20372,216.40159 -465.2186,474.53756 1.5786,102.24622 36.31924,196.24629 93.79969,272.33873 l -27.08507,27.6273 -23.83417,-22.87048 -151.92209,154.96528 c -40.574448,41.387 -39.554086,107.4792 2.27899,147.6211 v 0 c 41.83308,40.142 108.6372,39.1325 149.21166,-2.2545 l 151.91804,-154.9613 -20.85548,-20.0124 26.91749,-27.45652 c 78.84743,55.03972 175.33403,86.83252 279.21275,85.26272 C 961.6598,1077.236 1169.9465,864.77709 1165.9611,606.64096 1161.9761,348.50526 947.2365,142.43843 686.31962,146.38111 Z M 1015.6227,944.3001 863.55912,891.414 c -2.05195,1.2265 -4.0954,2.4689 -6.17448,3.6533 -45.97255,26.18411 -99.11556,41.50782 -155.91847,42.36621 -178.26865,2.6938 -324.98998,-138.09624 -327.71291,-314.46483 -2.72275,-176.36852 139.5839,-321.52579 317.85264,-324.21967 178.26891,-2.69385 324.9902,138.09593 327.7128,314.46475 1.0546,68.20218 -19.60462,131.71843 -55.61681,184.15759 z"
       class="color c1"
       id="path1775"
       style="fill:url(#linearGradient7259);fill-opacity:1;stroke-width:0.264583;stroke-dasharray:none" /><text
       xml:space="preserve"
       style="font-style:normal;font-variant:normal;font-weight:normal;font-stretch:normal;font-size:489.139px;font-family:'Noto Sans Tifinagh APT';-inkscape-font-specification:'Noto Sans Tifinagh APT, Normal';font-variant-ligatures:normal;font-variant-caps:normal;font-variant-numeric:normal;font-variant-east-asian:normal;fill:#00ffff;fill-opacity:0.522687;stroke:#00ffff;stroke-width:10.8217;stroke-dasharray:none;stroke-dashoffset:0;stroke-opacity:1;paint-order:fill markers stroke"
       x="504.37857"
       y="806.1629"
       id="text4587"
       transform="scale(0.971219,1.0296339)"><tspan
         sodipodi:role="line"
         id="tspan4663"
         x="504.37857"
         y="806.1629"
         style="stroke-width:10.8217">W</tspan></text></g></svg>
